<?xml version="1.0" encoding="utf-8"?>
<?xml-stylesheet type="text/xsl" href="rss1.xsl"?>
<rss version="2.0" xmlns:atom="http://www.w3.org/2005/Atom" xmlns:content="http://purl.org/rss/1.0/modules/content/" xmlns:dc="http://purl.org/dc/elements/1.1/" xmlns:media="http://search.yahoo.com/mrss/">
<channel>
 <title>Getty</title>
 <link>http://www.gettyimg.com/</link>
 <atom:link href="http://www.gettyimg.com/" rel="self" type="application/rss+xml" />

 
                <item>
                <title><![CDATA[【Requests】[REQ AUD] - A*Teens – The ABBA Generation JAPAN edition FLAC cue.]]></title>
                <link><![CDATA[https://sharemania.us/threads/a-teens-%E2%80%93-the-abba-generation-japan-edition-flac-cue.237163/]]></link>
                <description><![CDATA[<article>
<blockquote class="messageText SelectQuoteContainer ugc baseHtml">
does anybody have this edition in flac lossless please??? <br>
<br>
<a href="https://www.discogs.com/release/3194441-ATeens-The-ABBA-Generation" target="_blank" class="externalLink" rel="nofollow">https://www.discogs.com/release/3194441-ATeens-The-ABBA-Generation</a>
<div class="messageTextEndMarker">&nbsp;</div>
</blockquote>
</article>]]></description>
                <author><![CDATA[FreshPrince]]></author>
                </item>

                
                <item>
                <title><![CDATA[【HD Live Performances】HDTV - Annie Lennox - Nothing Compares 2 U (Tribute To Sinead O’Connor) - The 66th Annual Grammy Awards (2024) 1080i HDTV DD5.1 MPEG2-CHO]]></title>
                <link><![CDATA[https://sharemania.us/threads/annie-lennox-nothing-compares-2-u-tribute-to-sinead-o%E2%80%99connor-the-66th-annual-grammy-awards-2024-1080i-hdtv-dd5-1-mpeg2-cho.237162/]]></link>
                <description><![CDATA[<article>
<blockquote class="messageText SelectQuoteContainer ugc baseHtml">
<div style="text-align: center"><b><span style="color: #ff0000">Annie Lennox - Nothing Compares 2 U (Tribute To Sinead O’Connor) - The 66th Annual Grammy Awards (2024) 1080i HDTV DD5.1 MPEG2-CHOXUWU</span></b><br>
<br>
<img src="https://images2.imgbox.com/f6/fa/BPaEnEfv_o.jpg" class="bbCodeImage LbImage" alt="[​IMG]" data-url="https://images2.imgbox.com/f6/fa/BPaEnEfv_o.jpg" style=""> <br>
<div style="text-align: center">​</div>
<div class="ToggleTriggerAnchor bbCodeSpoilerContainer">
<button type="button" class="button bbCodeSpoilerButton ToggleTrigger Tooltip JsOnly" data-target="> .SpoilerTarget"><span>Spoiler: <span class="SpoilerTitle">MediaInfo</span></span></button>
<div class="SpoilerTarget bbCodeSpoilerText">Format : MPEG-TS<br>
File size : 197 MiB<br>
Duration : 2 min 50 s<br>
Overall bit rate mode : Variable<br>
Overall bit rate : 9 676 kb/s<br>
Movie name : THE GRAMMYS<br>
Law rating : TV-PG<br>
<br>
Video<br>
ID : 4016 (0xFB0)<br>
Menu ID : 2 (0x2)<br>
Format : MPEG Video<br>
Format version : Version 2<br>
Format profile : Main@High<br>
Format settings : CustomMatrix / BVOP<br>
Format settings, BVOP : Yes<br>
Format settings, Matrix : Custom<br>
Format settings, GOP : Variable<br>
Format settings, picture st : Frame<br>
Codec ID : 2<br>
Duration : 2 min 50 s<br>
Bit rate mode : Variable<br>
Bit rate : 8 616 kb/s<br>
Maximum bit rate : 15.6 Mb/s<br>
Width : 1 920 pixels<br>
Height : 1 080 pixels<br>
Display aspect ratio : 16:9<br>
Active Format Description : Full frame 16:9 image<br>
Frame rate : 29.970 (30000/1001) FPS<br>
Color space : YUV<br>
Chroma subsampling : 4:2:0<br>
Bit depth : 8 bits<br>
Scan type : Interlaced<br>
Scan order : Top Field First<br>
Compression mode : Lossy<br>
Bits/(Pixel*Frame) : 0.139<br>
Time code of first frame : 08:00:43;27<br>
Time code source : Group of pictures header<br>
GOP, Open/Closed : Open<br>
GOP, Open/Closed of first f : Closed<br>
Stream size : 175 MiB (89%)<br>
<br>
Audio #1<br>
ID : 4017 (0xFB1)<br>
Menu ID : 2 (0x2)<br>
Format : AC-3<br>
Format/Info : Audio Coding 3<br>
Commercial name : Dolby Digital<br>
Codec ID : 6<br>
Duration : 2 min 50 s<br>
Bit rate mode : Constant<br>
Bit rate : 384 kb/s<br>
Channel(s) : 6 channels<br>
Channel layout : L R C LFE Ls Rs<br>
Sampling rate : 48.0 kHz<br>
Frame rate : 31.250 FPS (1536 SPF)<br>
Compression mode : Lossy<br>
Delay relative to video : 4 ms<br>
Stream size : 7.80 MiB (4%)<br>
Language : English<br>
Service kind : Complete Main<br>
<br>
Audio #2<br>
ID : 4018 (0xFB2)<br>
Menu ID : 2 (0x2)<br>
Format : AC-3<br>
Format/Info : Audio Coding 3<br>
Commercial name : Dolby Digital<br>
Codec ID : 6<br>
Duration : 2 min 50 s<br>
Bit rate mode : Constant<br>
Bit rate : 192 kb/s<br>
Channel(s) : 2 channels<br>
Channel layout : L R<br>
Sampling rate : 48.0 kHz<br>
Frame rate : 31.250 FPS (1536 SPF)<br>
Compression mode : Lossy<br>
Delay relative to video : 4 ms<br>
Stream size : 3.90 MiB (2%)<br>
Language : English<br>
Service kind : Complete Main<br>
<br>
Text #1<br>
ID : 4016 (0xFB0)-CC1<br>
Menu ID : 2 (0x2)<br>
Format : EIA-608<br>
Muxing mode : A/53 / DTVCC Transport<br>
Muxing mode, more info : Muxed in Video #1<br>
Duration : 2 min 50 s<br>
Duration of the visible con : 2 min 38 s<br>
Start time (commands) : 2 s 869 ms<br>
Start time : 3 s 303 ms<br>
End time : 2 min 41 s<br>
Bit rate mode : Constant<br>
Stream size : 0.00 Byte (0%)<br>
Type of the first event : RollUp<br>
<br>
Text #2<br>
ID : 4016 (0xFB0)-CC3<br>
Menu ID : 2 (0x2)<br>
Format : EIA-608<br>
Muxing mode : A/53 / DTVCC Transport<br>
Muxing mode, more info : Muxed in Video #1<br>
Duration : 2 min 50 s<br>
Start time (commands) : 9 s 309 ms<br>
Bit rate mode : Constant<br>
Stream size : 0.00 Byte (0%)<br>
<br>
Text #3<br>
ID : 4016 (0xFB0)-1<br>
Menu ID : 2 (0x2)<br>
Format : EIA-708<br>
Muxing mode : A/53 / DTVCC Transport<br>
Muxing mode, more info : Muxed in Video #1<br>
Duration : 2 min 50 s<br>
Bit rate mode : Constant<br>
Stream size : 0.00 Byte (0%)<br>
<br>
Text #4<br>
ID : 4016 (0xFB0)-2<br>
Menu ID : 2 (0x2)<br>
Format : EIA-708<br>
Muxing mode : A/53 / DTVCC Transport<br>
Muxing mode, more info : Muxed in Video #1<br>
Duration : 2 min 50 s<br>
Bit rate mode : Constant<br>
Stream size : 0.00 Byte (0%)<br>
<br>
Text #5<br>
ID : 4016 (0xFB0)-3<br>
Menu ID : 2 (0x2)<br>
Format : EIA-708<br>
Muxing mode : A/53 / DTVCC Transport<br>
Muxing mode, more info : Muxed in Video #1<br>
Duration : 2 min 50 s<br>
Bit rate mode : Constant<br>
Stream size : 0.00 Byte (0%)<br>
<br>
Text #6<br>
ID : 4016 (0xFB0)-4<br>
Menu ID : 2 (0x2)<br>
Format : EIA-708<br>
Muxing mode : A/53 / DTVCC Transport<br>
Muxing mode, more info : Muxed in Video #1<br>
Duration : 2 min 50 s<br>
Bit rate mode : Constant<br>
Stream size : 0.00 Byte (0%)<br>
<br>
Text #7<br>
ID : 4016 (0xFB0)-5<br>
Menu ID : 2 (0x2)<br>
Format : EIA-708<br>
Muxing mode : A/53 / DTVCC Transport<br>
Muxing mode, more info : Muxed in Video #1<br>
Duration : 2 min 50 s<br>
Bit rate mode : Constant<br>
Stream size : 0.00 Byte (0%)<br>
<br>
Text #8<br>
ID : 4016 (0xFB0)-6<br>
Menu ID : 2 (0x2)<br>
Format : EIA-708<br>
Muxing mode : A/53 / DTVCC Transport<br>
Muxing mode, more info : Muxed in Video #1<br>
Duration : 2 min 50 s<br>
Bit rate mode : Constant<br>
Stream size : 0.00 Byte (0%)</div>
</div><div style="text-align: center"><br>
<div class="bbCodeBlock bbCodeVfcHH HiddenContent">
<div class="attribution type">Hidden Content:</div>
<blockquote>You must either reply or click 'Like' to see the hidden information contained here.</blockquote>
</div><div style="text-align: center"><span style="color: #ff0000">CREDITS <a href="https://sharemania.us/members/170100/" class="username" data-user="170100, @Chox">@Chox</a> </span>​</div></div></div>
<div class="messageTextEndMarker">&nbsp;</div>
</blockquote>
</article>]]></description>
                <author><![CDATA[melodie]]></author>
                </item>

                </channel></rss>